<svg width="148" height="15" viewBox="0 0 148 15" fill="none" xmlns="http://www.w3.org/2000/svg">
<path d="M17.5356 12.4929H14.3856L25.8516 0.648866H31.1016V14.0889H25.8516V4.93287L27.4266 5.58387L19.1316 14.0889H12.8316L4.5156 5.60487L6.1116 4.95387V14.0889H0.861602V0.648866H6.1116L17.5356 12.4929ZM46.5382 14.5089C43.4862 14.5089 41.0292 14.2429 39.1672 13.7109C37.3052 13.1649 35.9472 12.3669 35.0932 11.3169C34.2532 10.2529 33.8332 8.93687 33.8332 7.36887C33.8332 5.80087 34.2532 4.49187 35.0932 3.44187C35.9472 2.37787 37.3052 1.57987 39.1672 1.04787C41.0292 0.501866 43.4862 0.228867 46.5382 0.228867C49.5902 0.228867 52.0472 0.501866 53.9092 1.04787C55.7712 1.57987 57.1222 2.37787 57.9622 3.44187C58.8162 4.49187 59.2432 5.80087 59.2432 7.36887C59.2432 8.93687 58.8162 10.2529 57.9622 11.3169C57.1222 12.3669 55.7712 13.1649 53.9092 13.7109C52.0472 14.2429 49.5902 14.5089 46.5382 14.5089ZM46.5382 10.5189C47.9802 10.5189 49.2262 10.4349 50.2762 10.2669C51.3262 10.0849 52.1382 9.76987 52.7122 9.32187C53.2862 8.85987 53.5732 8.20887 53.5732 7.36887C53.5732 6.52887 53.2862 5.88487 52.7122 5.43687C52.1382 4.97487 51.3262 4.65987 50.2762 4.49187C49.2262 4.30987 47.9802 4.21887 46.5382 4.21887C45.0962 4.21887 43.8292 4.30987 42.7372 4.49187C41.6592 4.65987 40.8122 4.97487 40.1962 5.43687C39.5942 5.88487 39.2932 6.52887 39.2932 7.36887C39.2932 8.20887 39.5942 8.85987 40.1962 9.32187C40.8122 9.76987 41.6592 10.0849 42.7372 10.2669C43.8292 10.4349 45.0962 10.5189 46.5382 10.5189ZM78.6489 12.4929H75.4989L86.9649 0.648866H92.2149V14.0889H86.9649V4.93287L88.5399 5.58387L80.2449 14.0889H73.9449L65.6289 5.60487L67.2249 4.95387V14.0889H61.9749V0.648866H67.2249L78.6489 12.4929ZM95.4715 0.648866H100.722V14.0889H95.4715V0.648866ZM125.143 0.648866V4.63887H109.225V6.42387H122.245V9.99387H109.225V14.0889H103.975V0.648866H125.143ZM128.378 12.0519V8.90187H142.742V12.0519H128.378ZM123.674 14.0889L132.683 0.648866H138.521L147.614 14.0889H141.839L134.048 2.05587H137.177L129.449 14.0889H123.674Z" fill="white"/>
</svg>
